<?xml version="1.0" encoding="utf-8"?>
<!-- Generator: Adobe Illustrator 19.1.0, SVG Export Plug-In . SVG Version: 6.00 Build 0)  -->
<svg version="1.1" id="Layer_1" xmlns="http://www.w3.org/2000/svg" xmlns:xlink="http://www.w3.org/1999/xlink" x="0px" y="0px"
	 viewBox="15 101 530.4 300" style="enable-background:new 15 101 530.4 300;" xml:space="preserve">
<style type="text/css">
	.st0{fill:#00D3AB;}
	.st1{fill:#FFFFFF;}
</style>
<g>
	<g>
		<g>
			<path class="st0" d="M140.7,101h-9.4H125v100.5h-7.9C60.8,201.5,15,246.3,15,301.3S60.8,401,117.2,401h52.6v-1.5v-14.6V246v-13.8
				h-52.6c-39.1,0-70.7,30.9-70.7,69.1s31.7,69.1,70.7,69.1h8.6h14.1V355V246.8h14.9v138.9h-37.7c-47.7,0-86.4-37.9-86.4-84.4
				s38.8-84.4,86.4-84.4h52.6V210v-9.2v-85.2V101h-14.1H140.7z M125,355.7h-7.9c-30.8,0-55.8-24.4-55.8-54.5
				c0-30.1,25-54.5,55.8-54.5h7.9V355.7z M154.9,201.5H140v-85.2h14.9V201.5z"/>
		</g>
		<g>
			<path class="st0" d="M227.7,101L227.7,101h-39.3l0,0h-3.9v283.1v15.3v1.5h15.7l0,0h14.9l0,0h14.1v-1.5v-15.3V101H227.7z
				 M199.4,384.9V116.3h14.9v268.5h-14.9V384.9z"/>
		</g>
	</g>
</g>
<g>
	<path class="st1" d="M244.3,246.8h18.1c14.4,0,24.4,9.2,24.4,23c0,13.9-10,23-24.4,23h-18.1L244.3,246.8L244.3,246.8z M262.4,284.2
		c9.1,0,14.4-6.6,14.4-14.4c0-8.1-5-14.4-14.4-14.4h-8.3v28.8H262.4L262.4,284.2z"/>
	<path class="st1" d="M317.5,284.8h-20.6l-2.9,7.9h-10.8l17.8-46h12.3l17.7,46h-10.7L317.5,284.8z M299.6,276.4h15.2l-7.6-21.1
		L299.6,276.4z"/>
	<path class="st1" d="M341.9,261.9v30.9h-9.8v-46h10.1l21.3,29.8v-29.8h9.8v46h-9.5L341.9,261.9z"/>
	<path class="st1" d="M379,246.8h9.8v46H379V246.8z"/>
	<path class="st1" d="M394.6,246.8h32.6v8.4h-22.8v10h22.3v8.4h-22.3v10.7h22.8v8.5h-32.6V246.8z"/>
	<path class="st1" d="M431.6,246.8h9.8v37.4h19.5v8.6h-29.3V246.8z"/>
	<path class="st1" d="M244.3,308.8h9.8v37.4h19.5v8.6h-29.3V308.8z"/>
	<path class="st1" d="M277.1,308.8h32.6v8.4h-22.8v10h22.3v8.4h-22.3v10.7h22.8v8.5h-32.6V308.8z"/>
	<path class="st1" d="M335.8,308c13.9,0,24.1,9.9,24.1,23.8c0,13.9-10.1,23.8-24.1,23.8c-13.9,0-24-9.9-24-23.8
		C311.8,317.9,321.9,308,335.8,308z M335.8,316.7c-8.5,0-13.9,6.5-13.9,15.1c0,8.6,5.5,15.1,13.9,15.1c8.5,0,14-6.6,14-15.1
		C349.8,323.2,344.3,316.7,335.8,316.7z"/>
	<path class="st1" d="M373.2,323.9v30.9h-9.8v-46h10.1l21.3,29.8v-29.8h9.8v46h-9.5L373.2,323.9z"/>
	<path class="st1" d="M442.8,346.8h-20.6l-2.9,7.9h-10.8l17.8-46h12.3l17.7,46h-10.7L442.8,346.8z M424.8,338.4H440l-7.6-21.1
		L424.8,338.4z"/>
	<path class="st1" d="M478.3,338.3h-7.2v16.5h-9.8v-46h21.5c9.6,0,15.5,6.3,15.5,14.8c0,8.1-5.1,12.5-10.1,13.7l10.4,17.5h-11.2
		L478.3,338.3z M481.4,317.2h-10.3v12.7h10.3c3.9,0,6.9-2.5,6.9-6.3C488.3,319.7,485.3,317.2,481.4,317.2z"/>
	<path class="st1" d="M502.4,308.8h18.1c14.4,0,24.4,9.2,24.4,23c0,13.9-10,23-24.4,23h-18.1L502.4,308.8L502.4,308.8z M520.5,346.2
		c9.1,0,14.4-6.6,14.4-14.4c0-8.1-5-14.4-14.4-14.4h-8.3v28.8H520.5L520.5,346.2z"/>
</g>
</svg>
